Coordinates
version=1
nRows=37
nColumns=34
inDegrees=no

Units are S.I. units (second, meters, Newtons, ...)
If the header above contains a line with 'inDegrees', this indicates whether rotational values are in degrees (yes) or radians (no).

endheader
time	pelvis_tilt	pelvis_list	pelvis_rotation	pelvis_tx	pelvis_ty	pelvis_tz	hip_flexion_r	hip_adduction_r	hip_rotation_r	knee_angle_r	ankle_angle_r	subtalar_angle_r	mtp_angle_r	hip_flexion_l	hip_adduction_l	hip_rotation_l	knee_angle_l	ankle_angle_l	subtalar_angle_l	mtp_angle_l	lumbar_extension	lumbar_bending	lumbar_rotation	arm_flex_r	arm_add_r	arm_rot_r	elbow_flex_r	pro_sup_r	arm_flex_l	arm_add_l	arm_rot_l	elbow_flex_l	pro_sup_l
0	0.190287	-0.0296524	0.000259747	-0.199689	1.00032	-0.299348	0.280825	0.0380873	-0.133189	0.171151	0.00578851	-0.0210411	-0.0151795	-0.551962	-0.0535986	-0.429578	0.220553	0.333342	0.533027	-0.0517084	-0.434739	0.102426	-0.104446	-0.0138204	-0.162516	-0.290685	0.509322	2.11823	0.169317	-0.244461	0.000202066	1.21794	2.08962
0.01	0.192055	-0.0399691	0.00839171	-0.182108	1.00466	-0.298612	0.275252	0.04674	-0.143596	0.185753	-0.0373295	-0.0443581	-0.0152477	-0.56218	-0.0726199	-0.426406	0.23636	0.314717	0.543912	-0.0516339	-0.431601	0.118545	-0.109165	-0.0161506	-0.16388	-0.291556	0.506048	2.11779	0.154577	-0.239144	0.00212745	1.20783	2.08962
0.02	0.192548	-0.0503681	0.0151283	-0.16477	1.00845	-0.29773	0.271783	0.0556685	-0.152111	0.203068	-0.0716006	-0.0662517	-0.015316	-0.56644	-0.0921386	-0.421416	0.25847	0.289239	0.545777	-0.0515594	-0.427313	0.134192	-0.112207	-0.0185994	-0.16524	-0.292869	0.503889	2.11747	0.139916	-0.233162	0.00337175	1.1952	2.08962
0.03	0.19175	-0.0608397	0.0204824	-0.147692	1.01174	-0.2967	0.270367	0.0648651	-0.158726	0.222963	-0.0970964	-0.0867075	-0.0153843	-0.564703	-0.112135	-0.414588	0.286903	0.256917	0.5386	-0.0514849	-0.421881	0.149335	-0.113585	-0.0211553	-0.166586	-0.294609	0.502847	2.11725	0.125348	-0.226533	0.00393412	1.18005	2.08962
0.04	0.189652	-0.0713428	0.0245126	-0.130897	1.01461	-0.295521	0.270823	0.0743194	-0.163454	0.245023	-0.114071	-0.105692	-0.0154526	-0.556898	-0.13257	-0.405877	0.32168	0.217828	0.522403	-0.0514103	-0.415332	0.163913	-0.11336	-0.0237878	-0.167896	-0.296724	0.502924	2.11712	0.110914	-0.219318	0.00381566	1.16242	2.08963
0.05	0.186291	-0.0818054	0.0273717	-0.114407	1.01709	-0.294201	0.272772	0.0840183	-0.166377	0.268476	-0.123062	-0.123158	-0.0155209	-0.542976	-0.153392	-0.395239	0.362759	0.172205	0.497414	-0.0513358	-0.407744	0.177843	-0.111675	-0.0264446	-0.169131	-0.299105	0.504117	2.11705	0.0966892	-0.21164	0.00302926	1.14238	2.08963
0.06	0.181806	-0.0921227	0.0293397	-0.0982431	1.01928	-0.29276	0.275598	0.0939305	-0.167687	0.292231	-0.124937	-0.139068	-0.0155892	-0.523041	-0.174505	-0.382618	0.409875	0.120542	0.464258	-0.0512612	-0.399293	0.191028	-0.108782	-0.0290482	-0.170239	-0.30158	0.506404	2.11697	0.0827959	-0.203687	0.00161531	1.12006	2.08965
0.07	0.176473	-0.10215	0.0308252	-0.0824251	1.02123	-0.291229	0.278486	0.103974	-0.167702	0.315013	-0.120858	-0.15341	-0.0156576	-0.497445	-0.19571	-0.367923	0.462413	0.0637056	0.42401	-0.0511866	-0.390276	0.20336	-0.105031	-0.0314951	-0.171165	-0.303912	0.509735	2.11678	0.0694067	-0.195709	-0.000343448	1.09562	2.08969
0.08	0.170701	-0.111688	0.0323246	-0.0669679	1.02302	-0.289658	0.28052	0.113982	-0.166854	0.335571	-0.112158	-0.16617	-0.0157259	-0.466816	-0.216662	-0.351009	0.519367	0.00300212	0.378073	-0.051112	-0.381107	0.214707	-0.100844	-0.0336581	-0.171864	-0.305825	0.514014	2.11634	0.0567423	-0.187988	-0.00271525	1.06927	2.08979
0.09	0.164981	-0.120474	0.0343538	-0.0518814	1.02474	-0.288104	0.280811	0.123684	-0.165657	0.352881	-0.100179	-0.177304	-0.0157942	-0.432004	-0.236864	-0.331719	0.579422	-0.0597827	0.328029	-0.0510374	-0.372271	0.224918	-0.0966538	-0.0353959	-0.172315	-0.30702	0.519102	2.11547	0.0450525	-0.180812	-0.00532624	1.0412	2.09
0.1	0.159785	-0.128236	0.0373761	-0.0371723	1.02644	-0.286626	0.278656	0.132729	-0.164661	0.366292	-0.0861286	-0.186699	-0.0158625	-0.393918	-0.255764	-0.310025	0.641195	-0.122417	0.275615	-0.0509628	-0.364241	0.233828	-0.0928365	-0.0365698	-0.172537	-0.307212	0.524827	2.11402	0.034581	-0.174431	-0.00798302	1.01164	2.09039
0.11	0.155436	-0.134776	0.0417359	-0.022845	1.02818	-0.285268	0.27369	0.140762	-0.164417	0.37558	-0.0709924	-0.194184	-0.0159309	-0.353245	-0.272994	-0.28628	0.703656	-0.182332	0.222838	-0.0508881	-0.357342	0.241325	-0.0896664	-0.0370704	-0.172607	-0.306154	0.531003	2.11184	0.0255158	-0.169022	-0.0105086	0.980837	2.09102
0.12	0.152136	-0.139924	0.0475694	-0.00889909	1.03	-0.284061	0.265828	0.147426	-0.165368	0.380906	-0.0554837	-0.19951	-0.0159992	-0.310607	-0.288194	-0.261059	0.765895	-0.236779	0.171677	-0.0508135	-0.351791	0.24729	-0.0872493	-0.0368114	-0.172638	-0.303663	0.537436	2.10888	0.0179689	-0.164682	-0.0127725	0.949056	2.09196
0.13	0.149964	-0.143533	0.0547684	0.00467468	1.03192	-0.283017	0.255201	0.152411	-0.167775	0.382706	-0.0400611	-0.20238	-0.0160676	-0.266634	-0.300959	-0.235066	0.827022	-0.283072	0.123913	-0.0507388	-0.347716	0.251588	-0.0855007	-0.0357291	-0.172763	-0.299633	0.543931	2.10519	0.011954	-0.161434	-0.0147186	0.916648	2.09327
0.14	0.148877	-0.145494	0.0629967	0.0178928	1.03394	-0.28213	0.242091	0.1555	-0.171674	0.381553	-0.0249872	-0.202523	-0.0161359	-0.221963	-0.310884	-0.209073	0.886145	-0.318916	0.0810342	-0.0506641	-0.345154	0.254078	-0.0841651	-0.033784	-0.17311	-0.294043	0.55031	2.10098	0.00736948	-0.159242	-0.0163814	0.884056	2.09499
0.15	0.148706	-0.145756	0.0717494	0.0307827	1.03607	-0.281374	0.226877	0.156624	-0.176873	0.378038	-0.0104042	-0.199777	-0.0162042	-0.177216	-0.317644	-0.183869	0.9424	-0.342729	0.0441838	-0.0505894	-0.344056	0.254653	-0.0828642	-0.0309629	-0.173784	-0.286963	0.556418	2.09659	0.00399436	-0.158028	-0.0178847	0.85184	2.09713
0.16	0.149202	-0.14434	0.0804304	0.0433783	1.0383	-0.280707	0.209986	0.15588	-0.182973	0.37267	0.00359857	-0.194166	-0.0162726	-0.132945	-0.321084	-0.160223	0.994982	-0.353916	0.0141217	-0.0505146	-0.344276	0.253265	-0.0811619	-0.0272795	-0.174853	-0.278534	0.562141	2.09245	0.00149924	-0.157699	-0.019421	0.820668	2.09966
0.17	0.150087	-0.141375	0.0884333	0.0557211	1.0406	-0.280082	0.191857	0.15352	-0.189422	0.365828	0.0169398	-0.185925	-0.0163409	-0.0896034	-0.321262	-0.138842	1.04318	-0.352992	-0.00881151	-0.0504398	-0.345581	0.24993	-0.0786358	-0.0227733	-0.17634	-0.268968	0.567411	2.08899	-0.000524903	-0.158166	-0.0212135	0.791291	2.10251
0.18	0.151078	-0.137078	0.0952203	0.0678562	1.04296	-0.279446	0.172895	0.149909	-0.195588	0.35776	0.0295302	-0.1755	-0.0164093	-0.0475354	-0.318459	-0.120332	1.08641	-0.341524	-0.024716	-0.050365	-0.347691	0.244738	-0.0749359	-0.0175069	-0.178225	-0.258518	0.572218	2.08658	-0.00252679	-0.159357	-0.0234701	0.764479	2.10555
0.19	0.151923	-0.131716	0.10038	0.0798294	1.04535	-0.27875	0.153445	0.145463	-0.200847	0.348609	0.0412804	-0.163482	-0.0164776	-0.00698665	-0.313134	-0.105165	1.12423	-0.321888	-0.0341194	-0.0502902	-0.350319	0.23784	-0.0698242	-0.0115606	-0.180452	-0.247471	0.576606	2.08548	-0.00494876	-0.161231	-0.02634	0.740952	2.10859
0.2	0.152429	-0.125568	0.10366	0.0916822	1.04772	-0.27796	0.133775	0.140586	-0.204665	0.338459	0.0521251	-0.150525	-0.016546	0.031876	-0.305855	-0.0936513	1.15631	-0.296891	-0.0379163	-0.0502153	-0.353201	0.229433	-0.0631942	-0.00502621	-0.182943	-0.236119	0.580672	2.08576	-0.00818146	-0.163771	-0.0298839	0.721299	2.11143
0.21	0.152484	-0.118887	0.104972	0.103454	1.05006	-0.277058	0.114076	0.135609	-0.206669	0.327384	0.0620504	-0.137246	-0.0166143	0.0689426	-0.297218	-0.0859294	1.18249	-0.26935	-0.0372554	-0.0501404	-0.356124	0.219735	-0.0550715	0.00199859	-0.185616	-0.224738	0.584555	2.08731	-0.0125263	-0.166978	-0.0340664	0.705907	2.11385
0.22	0.152058	-0.111877	0.104383	0.115177	1.05232	-0.276036	0.0944722	0.130749	-0.206696	0.315489	0.0711137	-0.124148	-0.0166827	0.10414	-0.287769	-0.0819708	1.20271	-0.241708	-0.0333899	-0.0500655	-0.358939	0.208972	-0.045598	0.00941645	-0.1884	-0.213572	0.588416	2.0899	-0.0181712	-0.170857	-0.0387717	0.694912	2.11572
0.23	0.151183	-0.104685	0.102079	0.12687	1.05448	-0.274906	0.0750434	0.126101	-0.204797	0.302934	0.07945	-0.111561	-0.0167511	0.137421	-0.277954	-0.0815968	1.21702	-0.21577	-0.0275178	-0.0499906	-0.361558	0.197358	-0.0350033	0.0171357	-0.191247	-0.202808	0.592417	2.09314	-0.0251824	-0.175401	-0.0438364	0.688186	2.11701
0.24	0.149936	-0.097405	0.0983273	0.138544	1.05651	-0.27369	0.0558455	0.121649	-0.201224	0.289941	0.0872627	-0.0996346	-0.0168195	0.168754	-0.2681	-0.0845094	1.22554	-0.192595	-0.020648	-0.0499156	-0.363942	0.185094	-0.0235696	0.0250757	-0.194136	-0.192577	0.596699	2.09661	-0.0335112	-0.180577	-0.0490873	0.685348	2.11781
0.25	0.148411	-0.0900896	0.0934381	0.150206	1.05839	-0.272417	0.0369301	0.117293	-0.19637	0.276785	0.094801	-0.0883509	-0.0168878	0.198119	-0.258411	-0.0903282	1.22845	-0.172542	-0.0135199	-0.0498406	-0.366093	0.172361	-0.0115943	0.0331706	-0.197072	-0.182954	0.601358	2.0999	-0.0430142	-0.18632	-0.0543755	0.685821	2.11828
0.26	0.146702	-0.0827687	0.0877206	0.161859	1.06009	-0.271119	0.0183543	0.112897	-0.190706	0.263775	0.10233	-0.0775739	-0.0169562	0.225498	-0.248991	-0.0986302	1.22592	-0.155422	-0.00658949	-0.0497655	-0.368034	0.159323	0.00064203	0.0413722	-0.20008	-0.173965	0.606447	2.10268	-0.0534821	-0.192528	-0.0596037	0.688894	2.11861
0.27	0.144893	-0.0754629	0.0814549	0.173502	1.06161	-0.269826	0.000179855	0.10832	-0.184707	0.251217	0.110101	-0.0671041	-0.0170246	0.25087	-0.239869	-0.108983	1.2181	-0.140713	-7.59109e-05	-0.0496905	-0.369803	0.14613	0.0128992	0.0496498	-0.203191	-0.165608	0.611964	2.10469	-0.0646708	-0.199066	-0.0647404	0.693802	2.11897
0.28	0.143056	-0.0681956	0.0748752	0.185134	1.06291	-0.268569	-0.0175368	0.10345	-0.178798	0.239391	0.11832	-0.0567349	-0.017093	0.274197	-0.231022	-0.120967	1.20513	-0.127778	0.0059516	-0.0496154	-0.371445	0.132919	0.0249873	0.0579893	-0.206439	-0.157857	0.617871	2.10582	-0.0763324	-0.205773	-0.0698222	0.699803	2.11945
0.29	0.141245	-0.0610002	0.0681666	0.196757	1.06399	-0.26737	-0.0347581	0.0982261	-0.173311	0.22851	0.127128	-0.0462983	-0.0171614	0.295423	-0.222404	-0.134189	1.18707	-0.116033	0.0114769	-0.0495402	-0.373013	0.119824	0.0367637	0.0663886	-0.209848	-0.150676	0.624105	2.10607	-0.08824	-0.212472	-0.0749428	0.706237	2.12004
0.3	0.139508	-0.0539266	0.0614725	0.208371	1.06484	-0.266247	-0.0514788	0.0926499	-0.168471	0.218703	0.136592	-0.0356921	-0.0172299	0.314467	-0.213952	-0.148282	1.16391	-0.105054	0.0164592	-0.049465	-0.374558	0.106975	0.0481214	0.0748523	-0.213435	-0.144012	0.630599	2.10551	-0.100205	-0.218983	-0.0802343	0.71257	2.12058
0.31	0.137878	-0.0470434	0.054908	0.219983	1.06545	-0.265217	-0.0677318	0.0867865	-0.164401	0.210001	0.146703	-0.0248863	-0.0172983	0.331237	-0.205607	-0.162909	1.13562	-0.0946131	0.0207959	-0.0493898	-0.376124	0.0945049	0.0589726	0.0833851	-0.217202	-0.137803	0.637294	2.1043	-0.112088	-0.225133	-0.0858423	0.718419	2.12073
0.32	0.13638	-0.0404399	0.0485731	0.2316	1.06581	-0.264288	-0.0835869	0.0807597	-0.161147	0.202332	0.157394	-0.0139084	-0.0173667	0.345638	-0.197318	-0.177772	1.10209	-0.0846516	0.0243379	-0.0493146	-0.377738	0.0825545	0.0692348	0.0919841	-0.221141	-0.131974	0.644147	2.10259	-0.123796	-0.230766	-0.0919019	0.723548	2.12004
0.33	0.135037	-0.0342213	0.0425598	0.243235	1.06592	-0.263471	-0.0991401	0.07474	-0.158713	0.195536	0.168556	-0.0028134	-0.0174352	0.357592	-0.189051	-0.19263	1.06324	-0.0752156	0.0269545	-0.0492393	-0.379393	0.0712692	0.0788231	0.100633	-0.225233	-0.126449	0.651136	2.10059	-0.135278	-0.235751	-0.0985179	0.72785	2.11794
0.34	0.13386	-0.0284963	0.0369581	0.2549	1.06578	-0.262771	-0.114497	0.0689289	-0.157087	0.189385	0.180063	0.00835226	-0.0175036	0.36706	-0.180797	-0.207338	1.01898	-0.066373	0.0286372	-0.049164	-0.381041	0.0607991	0.0876533	0.109296	-0.229445	-0.121162	0.658253	2.09846	-0.146517	-0.239988	-0.105754	0.731318	2.11386
0.35	0.132821	-0.0233599	0.0318549	0.266614	1.06538	-0.262195	-0.129762	0.063538	-0.156273	0.183622	0.1918	0.0195843	-0.017572	0.374049	-0.172577	-0.22189	0.969296	-0.0581348	0.029622	-0.0490887	-0.382601	0.051292	0.0956512	0.117918	-0.233731	-0.116068	0.665499	2.09635	-0.157511	-0.243409	-0.113631	0.734009	2.10734
0.36	0.131837	-0.0188787	0.0273268	0.278392	1.06472	-0.261745	-0.145025	0.0587656	-0.156307	0.177997	0.20368	0.0309406	-0.0176405	0.378625	-0.164438	-0.236457	0.914248	-0.0503942	0.0305045	-0.0490133	-0.383974	0.0428821	0.102763	0.126423	-0.238036	-0.11115	0.67288	2.09438	-0.168267	-0.245978	-0.12214	0.736006	2.09814
